<svg viewBox="0 0 374 109" xmlns="http://www.w3.org/2000/svg" xmlns:xlink="http://www.w3.org/1999/xlink" width="374.000000" height="109.000000" fill="none" customFrame="#000000">
	<defs>
		<g id="pixso_custom_effect_5">
			<effect x="0.000000" y="2.000000" visibility="visible" fill="rgb(0,0,0)" fill-opacity="0.0705882385" effectType="dropShadow" stdDeviation="8" radius="0" />
		</g>
		<filter id="filter_5" width="374.000000" height="109.000000" x="0.000000" y="0.000000" filterUnits="userSpaceOnUse" customEffect="url(#pixso_custom_effect_5)" color-interpolation-filters="sRGB">
			<feFlood flood-opacity="0" result="BackgroundImageFix" />
			<feColorMatrix result="hardAlpha" in="SourceAlpha" type="matrix" values="0 0 0 0 0 0 0 0 0 0 0 0 0 0 0 0 0 0 127 0 " />
			<feOffset dx="0.000000" dy="2.000000" in="hardAlpha" />
			<feGaussianBlur stdDeviation="2.66666675" />
			<feComposite k2="-1" k3="1" in2="hardAlpha" operator="out" />
			<feColorMatrix type="matrix" values="0 0 0 0 0 0 0 0 0 0 0 0 0 0 0 0 0 0 0.0705882 0 " />
			<feBlend result="effect_dropShadow_1" in2="BackgroundImageFix" mode="normal" />
			<feBlend result="shape" in="SourceGraphic" in2="effect_dropShadow_1" mode="normal" />
		</filter>
		<clipPath id="clipPath_48">
			<rect width="358.000000" height="93.000000" x="8.000000" y="6.000000" rx="16.000000" fill="rgb(255,255,255)" />
		</clipPath>
		<clipPath id="clipPath_49">
			<rect width="48.000000" height="48.000000" x="24.000000" y="28.500000" rx="14.000000" fill="rgb(255,255,255)" />
		</clipPath>
		<clipPath id="clipPath_50">
			<rect width="24.000000" height="24.000000" x="36.000000" y="40.500000" fill="rgb(255,255,255)" />
		</clipPath>
		<clipPath id="clipPath_51">
			<rect width="230.000000" height="57.000000" x="86.000000" y="24.000000" fill="rgb(255,255,255)" />
		</clipPath>
		<clipPath id="clipPath_52">
			<rect width="20.000000" height="20.000000" x="330.000000" y="42.500000" fill="rgb(255,255,255)" />
		</clipPath>
	</defs>
	<g id="功能卡-特殊周期" filter="url(#filter_5)" customFrame="url(#clipPath_48)">
		<rect id="功能卡-特殊周期" width="358.000000" height="93.000000" x="8.000000" y="6.000000" rx="16.000000" fill="rgb(255,255,255)" />
		<g id="图标背景" customFrame="url(#clipPath_49)">
			<rect id="图标背景" width="48.000000" height="48.000000" x="24.000000" y="28.500000" rx="14.000000" fill="rgb(255,245,236)" />
			<g id="repeat" customFrame="url(#clipPath_50)">
				<rect id="repeat" width="24.000000" height="24.000000" x="36.000000" y="40.500000" />
				<path id="矢量 50" d="M53 42.5L57 46.5L53 50.5" fill-rule="nonzero" stroke="rgb(240,124,26)" stroke-linecap="round" stroke-linejoin="round" stroke-width="2.000000" />
				<path id="矢量 51" d="M39 51.5L39 50.5C39 49.7979 39.1848 49.1081 39.5359 48.5C39.887 47.8919 40.3919 47.387 41 47.0359C41.6081 46.6848 42.2979 46.5 43 46.5L57 46.5" fill-rule="nonzero" stroke="rgb(240,124,26)" stroke-linecap="round" stroke-linejoin="round" stroke-width="2.000000" />
				<path id="矢量 52" d="M43 62.5L39 58.5L43 54.5" fill-rule="nonzero" stroke="rgb(240,124,26)" stroke-linecap="round" stroke-linejoin="round" stroke-width="2.000000" />
				<path id="矢量 53" d="M57 53.5L57 54.5C57 55.2021 56.8152 55.8919 56.4641 56.5C56.113 57.1081 55.6081 57.613 55 57.9641C54.3919 58.3152 53.7021 58.5 53 58.5L39 58.5" fill-rule="nonzero" stroke="rgb(240,124,26)" stroke-linecap="round" stroke-linejoin="round" stroke-width="2.000000" />
			</g>
		</g>
		<g id="文字区" customFrame="url(#clipPath_51)">
			<rect id="文字区" width="230.000000" height="57.000000" x="86.000000" y="24.000000" />
			<path id="" d="M93.2773 27.957L100.742 27.957L100.742 29.5234L93.2773 29.5234L93.2773 27.957ZM92.3594 31.0742L101.438 31.0742L101.438 32.668L92.3594 32.668L92.3594 31.0742ZM92.6562 34.2461L101.301 34.2461L101.301 35.832L92.6562 35.832L92.6562 34.2461ZM96.1523 26.4375L97.7852 26.4375L97.7852 31.9492L96.1523 31.9492L96.1523 26.4375ZM98.0195 32.4805L99.6562 32.4805L99.6562 39.4375C99.6562 39.8854 99.6029 40.2357 99.4961 40.4883C99.3893 40.7409 99.1901 40.9375 98.8984 41.0781C98.6094 41.2057 98.2448 41.2865 97.8047 41.3203C97.3672 41.3542 96.8516 41.3711 96.2578 41.3711C96.224 41.1211 96.1602 40.8333 96.0664 40.5078C95.9753 40.1849 95.8711 39.9036 95.7539 39.6641C96.1654 39.6745 96.5586 39.6823 96.9336 39.6875C97.3112 39.6901 97.5625 39.6901 97.6875 39.6875C97.8151 39.6823 97.9023 39.6628 97.9492 39.6289C97.9961 39.5924 98.0195 39.5195 98.0195 39.4102L98.0195 32.4805ZM93.3008 36.7383L94.5391 35.9492C94.8906 36.3086 95.2513 36.7174 95.6211 37.1758C95.9935 37.6341 96.2695 38.043 96.4492 38.4023L95.1289 39.293C95.0247 39.0534 94.8724 38.7852 94.6719 38.4883C94.4714 38.1888 94.2513 37.8854 94.0117 37.5781C93.7721 37.2708 93.5352 36.9909 93.3008 36.7383ZM86.6602 35.4844C87.1263 35.375 87.6628 35.2409 88.2695 35.082C88.8763 34.9206 89.5182 34.7448 90.1953 34.5547C90.8724 34.362 91.5443 34.1693 92.2109 33.9766L92.3438 35.5664C91.4219 35.8659 90.4896 36.1615 89.5469 36.4531C88.6042 36.7448 87.763 37.0026 87.0234 37.2266L86.6602 35.4844ZM89.2422 26.457L90.8789 26.457L90.8789 41.3867L89.2422 41.3867L89.2422 26.457ZM87.2969 27.6992L88.6641 27.957C88.6094 28.6654 88.5365 29.3724 88.4453 30.0781C88.3568 30.7839 88.2526 31.4492 88.1328 32.0742C88.013 32.6966 87.8776 33.2448 87.7266 33.7188C87.6328 33.6432 87.5065 33.5651 87.3477 33.4844C87.1888 33.4036 87.0273 33.3242 86.8633 33.2461C86.7018 33.1654 86.5651 33.1029 86.4531 33.0586C86.6042 32.6185 86.7344 32.1081 86.8438 31.5273C86.9557 30.9466 87.0508 30.3268 87.1289 29.668C87.207 29.0091 87.263 28.3529 87.2969 27.6992ZM87.8086 29.6172L92.1875 29.6172L92.1875 31.2578L87.5352 31.2578L87.8086 29.6172ZM102.816 27.2188L108.996 27.2188L108.996 28.7773L102.816 28.7773L102.816 27.2188ZM104.801 30.4414L107.637 30.4414L107.637 31.9766L104.801 31.9766L104.801 30.4414ZM104.242 35.0977L105.125 33.7695C105.391 33.9154 105.678 34.0859 105.988 34.2812C106.301 34.474 106.6 34.6667 106.887 34.8594C107.173 35.0495 107.405 35.2214 107.582 35.375L106.672 36.8555C106.497 36.6862 106.271 36.5 105.992 36.2969C105.714 36.0911 105.418 35.8828 105.105 35.6719C104.796 35.4609 104.508 35.2695 104.242 35.0977ZM104.699 27.6914L106.23 27.9531C106.056 28.9922 105.836 30.0065 105.57 30.9961C105.307 31.9831 104.993 32.9062 104.629 33.7656C104.264 34.6224 103.842 35.3776 103.363 36.0312C103.298 35.9193 103.203 35.7812 103.078 35.6172C102.953 35.4505 102.82 35.2852 102.68 35.1211C102.539 34.9544 102.415 34.8203 102.309 34.7188C102.73 34.1693 103.094 33.5234 103.398 32.7812C103.706 32.0365 103.966 31.2318 104.18 30.3672C104.396 29.5 104.569 28.6081 104.699 27.6914ZM107.25 30.4414L107.555 30.4414L107.832 30.3984L108.809 30.6172C108.556 33.487 107.999 35.7786 107.137 37.4922C106.277 39.2031 105.142 40.4557 103.73 41.25C103.658 41.1276 103.555 40.9831 103.422 40.8164C103.292 40.6523 103.155 40.4935 103.012 40.3398C102.868 40.1862 102.74 40.0703 102.625 39.9922C103.526 39.5182 104.297 38.8815 104.938 38.082C105.581 37.2799 106.095 36.276 106.48 35.0703C106.866 33.8646 107.122 32.4245 107.25 30.75L107.25 30.4414ZM108.656 33.2227L117.422 33.2227L117.422 34.7812L108.656 34.7812L108.656 33.2227ZM110.363 29.3164L116.867 29.3164L116.867 30.8711L110.363 30.8711L110.363 29.3164ZM112.008 33.8984L113.336 34.3281C112.997 35.1458 112.582 35.9362 112.09 36.6992C111.598 37.4622 111.056 38.1562 110.465 38.7812C109.874 39.4062 109.253 39.931 108.602 40.3555C108.516 40.2201 108.405 40.0703 108.27 39.9062C108.134 39.7422 107.995 39.582 107.852 39.4258C107.708 39.2669 107.573 39.1367 107.445 39.0352C108.076 38.6862 108.681 38.2422 109.262 37.7031C109.842 37.1615 110.371 36.5638 110.848 35.9102C111.324 35.2539 111.711 34.5833 112.008 33.8984ZM114.262 33.8789C114.507 34.5169 114.811 35.1536 115.176 35.7891C115.543 36.4245 115.951 37.0065 116.398 37.5352C116.849 38.0638 117.315 38.5065 117.797 38.8633C117.609 39.0117 117.397 39.2161 117.16 39.4766C116.923 39.737 116.737 39.9766 116.602 40.1953C116.12 39.7578 115.66 39.2201 115.223 38.582C114.785 37.944 114.391 37.2487 114.039 36.4961C113.688 35.7409 113.387 34.9805 113.137 34.2148L114.262 33.8789ZM109.922 27.3164L111.484 27.5664C111.312 28.6081 111.069 29.5977 110.754 30.5352C110.439 31.4701 110.057 32.2552 109.609 32.8906C109.513 32.8125 109.383 32.7188 109.219 32.6094C109.055 32.4974 108.885 32.3893 108.711 32.2852C108.539 32.1784 108.387 32.0924 108.254 32.0273C108.691 31.4674 109.044 30.7695 109.312 29.9336C109.581 29.0977 109.784 28.2253 109.922 27.3164ZM112.285 26.5195L113.91 26.5195L113.91 41.4531L112.285 41.4531L112.285 26.5195ZM121.152 27.2188L131.273 27.2188L131.273 28.8086L121.152 28.8086L121.152 27.2188ZM122.738 30.2266L129.555 30.2266L129.555 31.5469L122.738 31.5469L122.738 30.2266ZM122.387 32.7109L129.898 32.7109L129.898 34.0781L122.387 34.0781L122.387 32.7109ZM120.125 27.2188L121.82 27.2188L121.82 32.6836C121.82 33.3372 121.797 34.0521 121.75 34.8281C121.703 35.6042 121.609 36.388 121.469 37.1797C121.331 37.9688 121.128 38.7318 120.859 39.4688C120.591 40.2031 120.237 40.8698 119.797 41.4688C119.701 41.3568 119.566 41.2292 119.395 41.0859C119.223 40.9453 119.047 40.8073 118.867 40.6719C118.69 40.5391 118.538 40.4401 118.41 40.375C118.803 39.8359 119.116 39.2461 119.348 38.6055C119.579 37.9622 119.75 37.2995 119.859 36.6172C119.971 35.9323 120.043 35.2539 120.074 34.582C120.108 33.9102 120.125 33.2773 120.125 32.6836L120.125 27.2188ZM130.617 27.2188L132.34 27.2188L132.34 39.4375C132.34 39.901 132.28 40.2565 132.16 40.5039C132.04 40.7539 131.833 40.9492 131.539 41.0898C131.247 41.2174 130.868 41.2956 130.402 41.3242C129.939 41.3555 129.355 41.3711 128.652 41.3711C128.618 41.1471 128.548 40.8776 128.441 40.5625C128.335 40.25 128.224 39.9883 128.109 39.7773C128.406 39.7878 128.699 39.7956 128.988 39.8008C129.28 39.8034 129.538 39.8034 129.762 39.8008C129.986 39.7982 130.142 39.7969 130.23 39.7969C130.374 39.7943 130.474 39.7656 130.531 39.7109C130.589 39.6562 130.617 39.5625 130.617 39.4297L130.617 27.2188ZM125.266 29.0703L126.895 29.0703L126.895 33.457L125.266 33.457L125.266 29.0703ZM123.898 35.1172L129.23 35.1172L129.23 39.4375L123.898 39.4375L123.898 38.125L127.641 38.125L127.641 36.4336L123.898 36.4336L123.898 35.1172ZM123.023 35.1172L124.582 35.1172L124.582 40.3164L123.023 40.3164L123.023 35.1172ZM143.82 27.1875L148.039 27.1875L148.039 28.7461L143.82 28.7461L143.82 27.1875ZM143.82 30.8203L148.039 30.8203L148.039 32.332L143.82 32.332L143.82 30.8203ZM143.809 34.5L148.055 34.5L148.055 36.0352L143.809 36.0352L143.809 34.5ZM147.297 27.1875L148.949 27.1875L148.949 39.4375C148.949 39.8672 148.898 40.207 148.797 40.457C148.695 40.7096 148.512 40.9062 148.246 41.0469C147.983 41.1823 147.646 41.2695 147.234 41.3086C146.823 41.3477 146.319 41.3633 145.723 41.3555C145.697 41.1237 145.635 40.8477 145.539 40.5273C145.443 40.207 145.337 39.9375 145.223 39.7188C145.59 39.737 145.945 39.7461 146.289 39.7461C146.633 39.7461 146.862 39.7435 146.977 39.7383C147.094 39.7357 147.176 39.7122 147.223 39.668C147.272 39.6211 147.297 39.5365 147.297 39.4141L147.297 27.1875ZM143.105 27.1875L144.719 27.1875L144.719 33.0508C144.719 33.6758 144.699 34.3568 144.66 35.0938C144.624 35.8281 144.551 36.5742 144.441 37.332C144.335 38.0898 144.176 38.8216 143.965 39.5273C143.757 40.2331 143.478 40.8698 143.129 41.4375C143.038 41.3333 142.906 41.2161 142.734 41.0859C142.565 40.9557 142.393 40.832 142.219 40.7148C142.044 40.6003 141.893 40.5156 141.766 40.4609C142.18 39.7656 142.482 38.9883 142.672 38.1289C142.862 37.2695 142.982 36.3997 143.031 35.5195C143.081 34.6367 143.105 33.8138 143.105 33.0508L143.105 27.1875ZM134.715 28.4023L142.5 28.4023L142.5 29.9062L134.715 29.9062L134.715 28.4023ZM136.742 30.9844L140.629 30.9844L140.629 32.3047L136.742 32.3047L136.742 30.9844ZM136.746 33.4844L140.633 33.4844L140.633 34.8125L136.746 34.8125L136.746 33.4844ZM134.516 36.0391L142.422 36.0391L142.422 37.543L134.516 37.543L134.516 36.0391ZM135.996 26.6328L137.543 26.6328L137.543 36.5977L135.996 36.5977L135.996 26.6328ZM139.805 26.6328L141.383 26.6328L141.383 36.5977L139.805 36.5977L139.805 26.6328ZM136.574 37.7227L138.199 38.1875C137.905 38.7865 137.54 39.3763 137.105 39.957C136.673 40.5378 136.241 41.0234 135.809 41.4141C135.71 41.3151 135.576 41.2018 135.406 41.0742C135.24 40.9492 135.069 40.8242 134.895 40.6992C134.72 40.5768 134.565 40.4805 134.43 40.4102C134.862 40.0716 135.27 39.6641 135.652 39.1875C136.038 38.7109 136.345 38.2227 136.574 37.7227ZM138.926 38.3789L140.238 37.6641C140.452 37.8958 140.672 38.1536 140.898 38.4375C141.125 38.7188 141.34 38.9961 141.543 39.2695C141.746 39.543 141.906 39.7917 142.023 40.0156L140.633 40.8242C140.534 40.6055 140.388 40.3542 140.195 40.0703C140.003 39.7891 139.796 39.4987 139.574 39.1992C139.353 38.8997 139.137 38.6263 138.926 38.3789ZM163.102 27.2617L164.754 27.2617L164.754 39.4375C164.754 39.8854 164.701 40.2292 164.594 40.4688C164.49 40.7109 164.296 40.8984 164.012 41.0312C163.723 41.1589 163.354 41.237 162.906 41.2656C162.458 41.2943 161.905 41.3073 161.246 41.3047C161.225 41.0885 161.169 40.8268 161.078 40.5195C160.987 40.2148 160.891 39.9609 160.789 39.7578C161.195 39.7682 161.592 39.776 161.98 39.7812C162.368 39.7865 162.625 39.7878 162.75 39.7852C162.883 39.7721 162.974 39.7409 163.023 39.6914C163.076 39.6419 163.102 39.556 163.102 39.4336L163.102 27.2617ZM151.215 29.9297L152.848 29.9297L152.848 41.3984L151.215 41.3984L151.215 29.9297ZM155.809 27.2617L164.16 27.2617L164.16 28.8555L155.809 28.8555L155.809 27.2617ZM151.746 27.3555L153.043 26.5547C153.316 26.7995 153.596 27.0729 153.883 27.375C154.172 27.6771 154.44 27.9792 154.688 28.2812C154.935 28.5807 155.132 28.8581 155.277 29.1133L153.887 30.0195C153.759 29.7695 153.577 29.4896 153.34 29.1797C153.103 28.8672 152.846 28.5508 152.57 28.2305C152.294 27.9102 152.02 27.6185 151.746 27.3555ZM153.691 31.3047L162.352 31.3047L162.352 32.6719L153.691 32.6719L153.691 31.3047ZM157.207 32.1367L158.738 32.1367L158.738 40.418L157.207 40.418L157.207 32.1367ZM160.293 33.8711L161.738 33.8711L161.738 37.5508C161.738 37.8503 161.706 38.0872 161.641 38.2617C161.578 38.4362 161.454 38.5768 161.27 38.6836C161.074 38.7799 160.849 38.8385 160.594 38.8594C160.341 38.8776 160.038 38.8867 159.684 38.8867C159.66 38.7044 159.609 38.5052 159.531 38.2891C159.456 38.0703 159.375 37.875 159.289 37.7031C159.482 37.7135 159.656 37.7188 159.812 37.7188C159.971 37.7188 160.077 37.7174 160.129 37.7148C160.238 37.7148 160.293 37.6576 160.293 37.543L160.293 33.8711ZM154.246 33.8711L160.824 33.8711L160.824 35.25L155.668 35.25L155.668 39.1016L154.246 39.1016L154.246 33.8711ZM156.535 29.8047L157.934 29.1797C158.147 29.4375 158.354 29.7305 158.555 30.0586C158.755 30.3841 158.905 30.6706 159.004 30.918L157.543 31.6562C157.457 31.3984 157.319 31.0964 157.129 30.75C156.939 30.4036 156.741 30.0885 156.535 29.8047ZM173.078 29.6992L181.18 29.6992L181.18 37.1016L179.547 37.1016L179.547 31.3594L174.633 31.3594L174.633 37.2188L173.078 37.2188L173.078 29.6992ZM176.238 26.4805L177.922 26.4805L177.922 41.4102L176.238 41.4102L176.238 26.4805ZM173.977 34.5781L180.371 34.5781L180.371 36.2305L173.977 36.2305L173.977 34.5781ZM168.711 26.4883L170.234 26.9453C170.016 27.5521 169.75 28.1589 169.438 28.7656C169.128 29.3724 168.786 29.9427 168.414 30.4766C168.042 31.0078 167.648 31.474 167.234 31.875C167.19 31.75 167.12 31.582 167.023 31.3711C166.927 31.1576 166.826 30.9427 166.719 30.7266C166.612 30.5078 166.512 30.3333 166.418 30.2031C166.895 29.7526 167.336 29.2005 167.742 28.5469C168.151 27.8906 168.474 27.2044 168.711 26.4883ZM168.609 28.1094L172.68 28.1094L172.68 29.6758L168.297 29.6758L168.609 28.1094ZM168.98 41.3281L168.734 39.8477L169.27 39.293L172.66 37.6797C172.684 37.9089 172.719 38.1693 172.766 38.4609C172.815 38.75 172.867 38.9857 172.922 39.168C172.151 39.5612 171.522 39.8828 171.035 40.1328C170.551 40.3828 170.173 40.5807 169.902 40.7266C169.634 40.875 169.432 40.9935 169.297 41.082C169.161 41.1732 169.056 41.2552 168.98 41.3281ZM167.812 31.0312L172.379 31.0312L172.379 32.5664L167.812 32.5664L167.812 31.0312ZM166.883 34.3086L172.668 34.3086L172.668 35.8477L166.883 35.8477L166.883 34.3086ZM168.98 41.3281C168.931 41.2083 168.855 41.0716 168.754 40.918C168.652 40.7643 168.543 40.612 168.426 40.4609C168.311 40.3125 168.206 40.1953 168.109 40.1094C168.289 39.9818 168.487 39.7773 168.703 39.4961C168.919 39.2148 169.027 38.8672 169.027 38.4531L169.027 31.418L170.66 31.418L170.66 39.4453C170.66 39.4453 170.603 39.4909 170.488 39.582C170.374 39.6706 170.233 39.7865 170.066 39.9297C169.902 40.0703 169.737 40.2266 169.57 40.3984C169.406 40.5703 169.267 40.737 169.152 40.8984C169.038 41.0625 168.98 41.2057 168.98 41.3281Z" fill="rgb(26,26,46)" fill-rule="nonzero" />
			<path id="" d="M89.3674 54.5859L96.1626 54.5859L96.1626 55.4619L89.3674 55.4619L89.3674 54.5859ZM88.4375 60.467L98.0161 60.467L98.0161 61.3335L88.4375 61.3335L88.4375 60.467ZM88.9739 52.396L98.0225 52.396L98.0225 53.2783L88.9739 53.2783L88.9739 52.396ZM95.7722 54.5859L96.7307 54.5859C96.7307 54.5859 96.7307 54.6177 96.7307 54.6812C96.7307 54.7425 96.7286 54.8113 96.7244 54.8875C96.7201 54.9636 96.718 55.025 96.718 55.0715C96.6778 56.3749 96.6355 57.4762 96.5911 58.3755C96.5466 59.2726 96.4958 60.0047 96.4387 60.5718C96.3816 61.1388 96.3139 61.5768 96.2356 61.8857C96.1573 62.1925 96.0653 62.4147 95.9595 62.5522C95.8389 62.7152 95.7035 62.8284 95.5532 62.8918C95.4051 62.9553 95.2327 62.9987 95.0359 63.022C94.8476 63.0347 94.6 63.0389 94.2932 63.0347C93.9885 63.0326 93.6754 63.022 93.3538 63.0029C93.3453 62.8929 93.321 62.7628 93.2808 62.6125C93.2406 62.4623 93.1866 62.3322 93.1189 62.2222C93.449 62.2476 93.7515 62.2645 94.0266 62.2729C94.3017 62.2835 94.5027 62.2867 94.6296 62.2825C94.7481 62.2825 94.8412 62.2698 94.9089 62.2444C94.9788 62.219 95.0443 62.1682 95.1057 62.092C95.1903 61.9926 95.2655 61.7916 95.3311 61.489C95.3966 61.1864 95.4548 60.7537 95.5056 60.1909C95.5585 59.6281 95.6072 58.9045 95.6516 58.02C95.696 57.1356 95.7362 56.0607 95.7722 54.7954L95.7722 54.5859ZM88.8977 54.5859L89.8752 54.5859C89.8097 55.1276 89.7367 55.7042 89.6562 56.3157C89.578 56.9272 89.4944 57.5387 89.4055 58.1501C89.3188 58.7616 89.232 59.3403 89.1453 59.8862C89.0585 60.4321 88.976 60.9124 88.8977 61.3271L87.8979 61.3271C87.9889 60.8997 88.0799 60.4099 88.1709 59.8577C88.264 59.3054 88.356 58.7235 88.447 58.1121C88.5401 57.5006 88.6237 56.8912 88.6978 56.2839C88.7739 55.6767 88.8406 55.1107 88.8977 54.5859ZM89.5229 51.0059L90.4941 51.282C90.2318 51.8744 89.9313 52.4563 89.5928 53.0276C89.2542 53.5989 88.8966 54.1342 88.52 54.6335C88.1434 55.1308 87.7636 55.5709 87.3806 55.9539C87.315 55.901 87.2293 55.8385 87.1235 55.7666C87.0177 55.6947 86.9088 55.6217 86.7966 55.5476C86.6866 55.4736 86.5903 55.4164 86.5078 55.3762C86.9119 55.025 87.3013 54.6156 87.6758 54.1479C88.0503 53.6782 88.3941 53.1746 88.7073 52.6372C89.0225 52.0998 89.2944 51.556 89.5229 51.0059ZM91.0781 56.0459L91.6367 55.4937C91.9202 55.6164 92.2122 55.7603 92.5127 55.9253C92.8153 56.0903 93.0977 56.2596 93.3601 56.4331C93.6246 56.6066 93.8415 56.7759 94.0107 56.9409L93.4236 57.5503C93.2628 57.3895 93.0522 57.217 92.792 57.033C92.5317 56.8489 92.2524 56.6711 91.9541 56.4998C91.6558 56.3263 91.3638 56.175 91.0781 56.0459ZM90.7449 58.8992L91.2971 58.3501C91.5976 58.4876 91.9065 58.6506 92.2239 58.8389C92.5413 59.0272 92.8375 59.2187 93.1125 59.4133C93.3897 59.608 93.6151 59.7942 93.7886 59.9719L93.2205 60.594C93.047 60.4184 92.8237 60.2279 92.5508 60.0227C92.2778 59.8175 91.9837 59.6165 91.6685 59.4197C91.3553 59.2229 91.0474 59.0494 90.7449 58.8992ZM86.5554 57.4963L88.9897 57.4963L88.9897 57.5217L96.1626 57.5217L96.1626 57.4963L98.4731 57.4963L98.4731 58.3787L96.1626 58.3787L96.1626 58.3533L88.9897 58.3533L88.9897 58.3787L86.5554 58.3787L86.5554 57.4963ZM111.299 52.5452L110.172 52.5452L110.172 59.9878L110.08 59.9878L104.91 52.5452L103.802 52.5452L103.802 62L104.945 62L104.945 54.5764L105.04 54.5764L110.191 62L111.299 62L111.299 52.5452ZM123.145 56.5696C123.569 57.9301 124.24 59.0938 125.161 60.0608C126.083 61.0278 127.25 61.7154 128.661 62.1238C128.587 62.1936 128.507 62.2793 128.42 62.3809C128.336 62.4845 128.255 62.5914 128.179 62.7014C128.105 62.8114 128.044 62.913 127.995 63.0061C127.022 62.6803 126.165 62.2285 125.424 61.6509C124.684 61.0732 124.051 60.3761 123.526 59.5593C123.004 58.7426 122.576 57.8243 122.244 56.8044L123.145 56.5696ZM117.42 52.0818L127.725 52.0818L127.725 53.072L117.42 53.072L117.42 52.0818ZM116.96 56.084L128.284 56.084L128.284 57.0742L116.96 57.0742L116.96 56.084ZM122.006 52.4214L123.025 52.4214L123.025 54.6208C123.025 55.1583 122.991 55.7243 122.923 56.3188C122.855 56.9113 122.717 57.5101 122.507 58.1152C122.298 58.7204 121.983 59.3171 121.562 59.9053C121.143 60.4914 120.585 61.0479 119.889 61.5747C119.195 62.1016 118.325 62.5819 117.28 63.0156C117.238 62.9352 117.18 62.8432 117.106 62.7395C117.031 62.6379 116.954 62.5374 116.874 62.438C116.793 62.3407 116.715 62.2603 116.639 62.1968C117.623 61.799 118.442 61.3578 119.096 60.8733C119.749 60.3866 120.27 59.8778 120.657 59.3467C121.046 58.8156 121.338 58.2782 121.533 57.7344C121.728 57.1885 121.855 56.651 121.914 56.1221C121.975 55.591 122.006 55.0874 122.006 54.6113L122.006 52.4214ZM132.648 62.7268C132.371 62.3819 132.067 62.036 131.737 61.689C131.409 61.3398 131.077 61.0055 130.74 60.686C130.404 60.3665 130.082 60.082 129.775 59.8323L130.617 59.0896C130.93 59.3414 131.26 59.6313 131.607 59.9592C131.954 60.2872 132.293 60.6257 132.626 60.9749C132.96 61.324 133.262 61.6572 133.533 61.9746L132.648 62.7268ZM145.467 54.5859L152.262 54.5859L152.262 55.4619L145.467 55.4619L145.467 54.5859ZM144.537 60.467L154.116 60.467L154.116 61.3335L144.537 61.3335L144.537 60.467ZM145.073 52.396L154.122 52.396L154.122 53.2783L145.073 53.2783L145.073 52.396ZM151.872 54.5859L152.83 54.5859C152.83 54.5859 152.83 54.6177 152.83 54.6812C152.83 54.7425 152.828 54.8113 152.824 54.8875C152.82 54.9636 152.817 55.025 152.817 55.0715C152.777 56.3749 152.735 57.4762 152.69 58.3755C152.646 59.2726 152.595 60.0047 152.538 60.5718C152.481 61.1388 152.413 61.5768 152.335 61.8857C152.257 62.1925 152.165 62.4147 152.059 62.5522C151.938 62.7152 151.803 62.8284 151.653 62.8918C151.505 62.9553 151.332 62.9987 151.135 63.022C150.947 63.0347 150.699 63.0389 150.393 63.0347C150.088 63.0326 149.775 63.022 149.453 63.0029C149.445 62.8929 149.42 62.7628 149.38 62.6125C149.34 62.4623 149.286 62.3322 149.218 62.2222C149.548 62.2476 149.851 62.2645 150.126 62.2729C150.401 62.2835 150.602 62.2867 150.729 62.2825C150.848 62.2825 150.941 62.2698 151.008 62.2444C151.078 62.219 151.144 62.1682 151.205 62.092C151.29 61.9926 151.365 61.7916 151.43 61.489C151.496 61.1864 151.554 60.7537 151.605 60.1909C151.658 59.6281 151.707 58.9045 151.751 58.02C151.795 57.1356 151.836 56.0607 151.872 54.7954L151.872 54.5859ZM144.997 54.5859L145.975 54.5859C145.909 55.1276 145.836 55.7042 145.756 56.3157C145.677 56.9272 145.594 57.5387 145.505 58.1501C145.418 58.7616 145.331 59.3403 145.245 59.8862C145.158 60.4321 145.075 60.9124 144.997 61.3271L143.997 61.3271C144.088 60.8997 144.179 60.4099 144.27 59.8577C144.363 59.3054 144.455 58.7235 144.546 58.1121C144.64 57.5006 144.723 56.8912 144.797 56.2839C144.873 55.6767 144.94 55.1107 144.997 54.5859ZM145.622 51.0059L146.594 51.282C146.331 51.8744 146.031 52.4563 145.692 53.0276C145.354 53.5989 144.996 54.1342 144.619 54.6335C144.243 55.1308 143.863 55.5709 143.48 55.9539C143.414 55.901 143.329 55.8385 143.223 55.7666C143.117 55.6947 143.008 55.6217 142.896 55.5476C142.786 55.4736 142.69 55.4164 142.607 55.3762C143.011 55.025 143.401 54.6156 143.775 54.1479C144.15 53.6782 144.494 53.1746 144.807 52.6372C145.122 52.0998 145.394 51.556 145.622 51.0059ZM147.178 56.0459L147.736 55.4937C148.02 55.6164 148.312 55.7603 148.612 55.9253C148.915 56.0903 149.197 56.2596 149.46 56.4331C149.724 56.6066 149.941 56.7759 150.11 56.9409L149.523 57.5503C149.362 57.3895 149.152 57.217 148.891 57.033C148.631 56.8489 148.352 56.6711 148.054 56.4998C147.755 56.3263 147.463 56.175 147.178 56.0459ZM146.844 58.8992L147.397 58.3501C147.697 58.4876 148.006 58.6506 148.323 58.8389C148.641 59.0272 148.937 59.2187 149.212 59.4133C149.489 59.608 149.715 59.7942 149.888 59.9719L149.32 60.594C149.146 60.4184 148.923 60.2279 148.65 60.0227C148.377 59.8175 148.083 59.6165 147.768 59.4197C147.455 59.2229 147.147 59.0494 146.844 58.8992ZM142.655 57.4963L145.089 57.4963L145.089 57.5217L152.262 57.5217L152.262 57.4963L154.573 57.4963L154.573 58.3787L152.262 58.3787L152.262 58.3533L145.089 58.3533L145.089 58.3787L142.655 58.3787L142.655 57.4963ZM167.398 52.5452L166.271 52.5452L166.271 59.9878L166.179 59.9878L161.009 52.5452L159.901 52.5452L159.901 62L161.044 62L161.044 54.5764L161.139 54.5764L166.29 62L167.398 62L167.398 52.5452ZM174.697 51.7073L183.034 51.7073L183.034 52.6182L174.697 52.6182L174.697 51.7073ZM175.938 54.002L181.657 54.002L181.657 54.7859L175.938 54.7859L175.938 54.002ZM175.62 56.0586L181.981 56.0586L181.981 56.8679L175.62 56.8679L175.62 56.0586ZM174.122 51.7073L175.081 51.7073L175.081 55.9221C175.081 56.4553 175.062 57.0361 175.024 57.6646C174.985 58.2909 174.909 58.9267 174.795 59.572C174.683 60.2153 174.515 60.8394 174.29 61.4446C174.068 62.0497 173.774 62.6062 173.408 63.114C173.351 63.0505 173.275 62.9775 173.18 62.895C173.084 62.8125 172.987 62.7332 172.888 62.657C172.788 62.5808 172.701 62.5247 172.627 62.4888C172.968 62.0148 173.238 61.5028 173.437 60.9526C173.638 60.4004 173.787 59.8333 173.884 59.2515C173.984 58.6675 174.048 58.092 174.078 57.5249C174.107 56.9578 174.122 56.4236 174.122 55.9221L174.122 51.7073ZM182.663 51.7073L183.641 51.7073L183.641 61.8032C183.641 62.11 183.597 62.3417 183.51 62.4983C183.424 62.657 183.276 62.7786 183.066 62.8633C182.863 62.9373 182.58 62.9828 182.219 62.9998C181.857 63.0167 181.382 63.0251 180.794 63.0251C180.777 62.9003 180.735 62.7469 180.67 62.5649C180.604 62.3851 180.538 62.2327 180.47 62.1079C180.749 62.1164 181.017 62.1206 181.273 62.1206C181.531 62.1227 181.754 62.1227 181.943 62.1206C182.133 62.1185 182.266 62.1174 182.342 62.1174C182.459 62.1111 182.541 62.0846 182.59 62.0381C182.639 61.9937 182.663 61.9164 182.663 61.8064L182.663 51.7073ZM178.27 52.8752L179.203 52.8752L179.203 56.5315L178.27 56.5315L178.27 52.8752ZM176.776 57.9629L181.314 57.9629L181.314 61.3748L176.776 61.3748L176.776 60.5972L180.403 60.5972L180.403 58.7468L176.776 58.7468L176.776 57.9629ZM176.258 57.9629L177.153 57.9629L177.153 62.1016L176.258 62.1016L176.258 57.9629ZM188.747 62.7268C188.47 62.3819 188.166 62.036 187.836 61.689C187.508 61.3398 187.176 61.0055 186.84 60.686C186.503 60.3665 186.182 60.082 185.875 59.8323L186.716 59.0896C187.029 59.3414 187.359 59.6313 187.706 59.9592C188.053 60.2872 188.393 60.6257 188.725 60.9749C189.059 61.324 189.362 61.6572 189.633 61.9746L188.747 62.7268ZM201.566 54.5859L208.361 54.5859L208.361 55.4619L201.566 55.4619L201.566 54.5859ZM200.636 60.467L210.215 60.467L210.215 61.3335L200.636 61.3335L200.636 60.467ZM201.173 52.396L210.221 52.396L210.221 53.2783L201.173 53.2783L201.173 52.396ZM207.971 54.5859L208.93 54.5859C208.93 54.5859 208.93 54.6177 208.93 54.6812C208.93 54.7425 208.927 54.8113 208.923 54.8875C208.919 54.9636 208.917 55.025 208.917 55.0715C208.877 56.3749 208.834 57.4762 208.79 58.3755C208.745 59.2726 208.695 60.0047 208.638 60.5718C208.58 61.1388 208.513 61.5768 208.434 61.8857C208.356 62.1925 208.264 62.4147 208.158 62.5522C208.038 62.7152 207.902 62.8284 207.752 62.8918C207.604 62.9553 207.432 62.9987 207.235 63.022C207.046 63.0347 206.799 63.0389 206.492 63.0347C206.187 63.0326 205.874 63.022 205.553 63.0029C205.544 62.8929 205.52 62.7628 205.48 62.6125C205.439 62.4623 205.385 62.3322 205.318 62.2222C205.648 62.2476 205.95 62.2645 206.225 62.2729C206.501 62.2835 206.702 62.2867 206.828 62.2825C206.947 62.2825 207.04 62.2698 207.108 62.2444C207.178 62.219 207.243 62.1682 207.305 62.092C207.389 61.9926 207.464 61.7916 207.53 61.489C207.596 61.1864 207.654 60.7537 207.704 60.1909C207.757 59.6281 207.806 58.9045 207.85 58.02C207.895 57.1356 207.935 56.0607 207.971 54.7954L207.971 54.5859ZM201.097 54.5859L202.074 54.5859C202.009 55.1276 201.936 55.7042 201.855 56.3157C201.777 56.9272 201.693 57.5387 201.604 58.1501C201.518 58.7616 201.431 59.3403 201.344 59.8862C201.257 60.4321 201.175 60.9124 201.097 61.3271L200.097 61.3271C200.188 60.8997 200.279 60.4099 200.37 59.8577C200.463 59.3054 200.555 58.7235 200.646 58.1121C200.739 57.5006 200.823 56.8912 200.897 56.2839C200.973 55.6767 201.039 55.1107 201.097 54.5859ZM201.722 51.0059L202.693 51.282C202.431 51.8744 202.13 52.4563 201.792 53.0276C201.453 53.5989 201.096 54.1342 200.719 54.6335C200.342 55.1308 199.962 55.5709 199.579 55.9539C199.514 55.901 199.428 55.8385 199.322 55.7666C199.217 55.6947 199.108 55.6217 198.995 55.5476C198.885 55.4736 198.789 55.4164 198.707 55.3762C199.111 55.025 199.5 54.6156 199.875 54.1479C200.249 53.6782 200.593 53.1746 200.906 52.6372C201.221 52.0998 201.493 51.556 201.722 51.0059ZM203.277 56.0459L203.836 55.4937C204.119 55.6164 204.411 55.7603 204.712 55.9253C205.014 56.0903 205.297 56.2596 205.559 56.4331C205.823 56.6066 206.04 56.7759 206.21 56.9409L205.622 57.5503C205.462 57.3895 205.251 57.217 204.991 57.033C204.731 56.8489 204.451 56.6711 204.153 56.4998C203.855 56.3263 203.563 56.175 203.277 56.0459ZM202.944 58.8992L203.496 58.3501C203.796 58.4876 204.105 58.6506 204.423 58.8389C204.74 59.0272 205.036 59.2187 205.311 59.4133C205.589 59.608 205.814 59.7942 205.987 59.9719L205.419 60.594C205.246 60.4184 205.023 60.2279 204.75 60.0227C204.477 59.8175 204.183 59.6165 203.867 59.4197C203.554 59.2229 203.246 59.0494 202.944 58.8992ZM198.754 57.4963L201.189 57.4963L201.189 57.5217L208.361 57.5217L208.361 57.4963L210.672 57.4963L210.672 58.3787L208.361 58.3787L208.361 58.3533L201.189 58.3533L201.189 58.3787L198.754 58.3787L198.754 57.4963ZM223.497 52.5452L222.371 52.5452L222.371 59.9878L222.279 59.9878L217.109 52.5452L216.001 52.5452L216.001 62L217.143 62L217.143 54.5764L217.239 54.5764L222.39 62L223.497 62L223.497 52.5452ZM231.599 51.7676L238.375 51.7676L238.375 52.7166L231.599 52.7166L231.599 51.7676ZM231.596 54.9001L238.432 54.9001L238.432 55.8301L231.596 55.8301L231.596 54.9001ZM231.491 58.0359L238.369 58.0359L238.369 58.9817L231.491 58.9817L231.491 58.0359ZM230.99 51.7676L231.98 51.7676L231.98 55.7793C231.98 56.3421 231.95 56.9441 231.891 57.5852C231.832 58.2242 231.715 58.8717 231.542 59.5276C231.368 60.1835 231.111 60.813 230.771 61.416C230.43 62.019 229.979 62.5649 229.419 63.0537C229.37 62.9818 229.301 62.8993 229.212 62.8062C229.126 62.7152 229.034 62.6263 228.936 62.5396C228.839 62.4549 228.753 62.3904 228.679 62.3459C229.202 61.8847 229.618 61.3822 229.926 60.8384C230.237 60.2946 230.469 59.7339 230.622 59.1562C230.774 58.5765 230.873 57.9989 230.92 57.4233C230.966 56.8457 230.99 56.2956 230.99 55.7729L230.99 51.7676ZM237.947 51.7676L238.969 51.7676L238.969 61.5969C238.969 61.946 238.917 62.2105 238.813 62.3904C238.709 62.5723 238.535 62.7067 238.289 62.7935C238.038 62.8802 237.689 62.9331 237.242 62.9521C236.796 62.9733 236.223 62.9839 235.525 62.9839C235.506 62.8823 235.472 62.7691 235.424 62.6443C235.377 62.5216 235.327 62.3988 235.274 62.2761C235.221 62.1534 235.166 62.0466 235.109 61.9556C235.471 61.9661 235.819 61.9736 236.154 61.9778C236.488 61.982 236.778 61.9831 237.023 61.981C237.271 61.9767 237.444 61.9746 237.544 61.9746C237.696 61.9704 237.801 61.9397 237.858 61.8826C237.917 61.8254 237.947 61.7271 237.947 61.5874L237.947 51.7676ZM247.281 54.0527L248.284 54.0527L248.284 57.4519L247.281 57.4519L247.281 54.0527ZM243.206 54.9478L252.486 54.9478L252.486 55.7761L243.206 55.7761L243.206 54.9478ZM241.917 56.9409L253.724 56.9409L253.724 57.7979L241.917 57.7979L241.917 56.9409ZM242.336 58.9436L253.378 58.9436L253.378 59.8005L242.336 59.8005L242.336 58.9436ZM249.937 57.6265L250.934 57.6265L250.934 61.8857C250.934 62.1672 250.895 62.3819 250.817 62.53C250.738 62.6803 250.585 62.7966 250.356 62.8792C250.138 62.949 249.846 62.9913 249.48 63.0061C249.114 63.0209 248.662 63.0283 248.122 63.0283C248.097 62.8866 248.047 62.7289 247.973 62.5554C247.899 62.384 247.826 62.2349 247.754 62.1079C248.052 62.1164 248.329 62.1227 248.585 62.127C248.841 62.1312 249.063 62.1312 249.249 62.127C249.435 62.1248 249.568 62.1217 249.649 62.1174C249.763 62.1111 249.839 62.091 249.877 62.0571C249.917 62.0233 249.937 61.9619 249.937 61.873L249.937 57.6265ZM243.418 52.1738L247.646 52.1738L247.646 53.0022L243.418 53.0022L243.418 52.1738ZM248.439 52.1738L253.587 52.1738L253.587 53.0022L248.439 53.0022L248.439 52.1738ZM243.71 51.0154L244.647 51.2661C244.393 51.9051 244.079 52.5208 243.704 53.1133C243.332 53.7036 242.945 54.2019 242.546 54.6082C242.486 54.5574 242.406 54.4981 242.304 54.4304C242.205 54.3627 242.102 54.295 241.997 54.2273C241.893 54.1596 241.802 54.1056 241.724 54.0654C242.136 53.6846 242.517 53.2254 242.866 52.688C243.215 52.1484 243.497 51.5909 243.71 51.0154ZM248.817 51.0154L249.75 51.2407C249.528 51.8586 249.238 52.4457 248.881 53.0022C248.523 53.5587 248.14 54.0263 247.732 54.405C247.674 54.35 247.595 54.2876 247.494 54.2178C247.394 54.1458 247.294 54.075 247.192 54.0051C247.093 53.9332 247.004 53.8771 246.925 53.8369C247.33 53.4941 247.699 53.0763 248.033 52.5833C248.367 52.0881 248.629 51.5655 248.817 51.0154ZM244.199 52.7991L245.024 52.5198C245.166 52.7758 245.306 53.0593 245.443 53.3704C245.583 53.6814 245.68 53.9469 245.735 54.167L244.866 54.4844C244.821 54.2622 244.734 53.9924 244.605 53.675C244.478 53.3577 244.343 53.0657 244.199 52.7991ZM249.607 52.8054L250.407 52.488C250.623 52.7398 250.839 53.0265 251.055 53.3481C251.27 53.6676 251.428 53.948 251.528 54.1892L250.683 54.551C250.597 54.3119 250.451 54.0284 250.245 53.7004C250.042 53.3725 249.83 53.0741 249.607 52.8054ZM244.199 60.3623L244.916 59.8101C245.198 59.9793 245.482 60.1772 245.77 60.4036C246.06 60.6278 246.328 60.8564 246.573 61.0891C246.819 61.3219 247.013 61.5419 247.157 61.7493L246.405 62.3713C246.267 62.164 246.079 61.9408 245.84 61.7017C245.601 61.4604 245.34 61.2235 245.056 60.9907C244.773 60.758 244.487 60.5485 244.199 60.3623ZM255.482 54.0083L256.479 54.0083L256.479 63.041L255.482 63.041L255.482 54.0083ZM255.673 51.7136L256.431 51.2502C256.634 51.4301 256.841 51.63 257.05 51.8501C257.262 52.0701 257.457 52.2891 257.637 52.5071C257.817 52.7229 257.958 52.9218 258.059 53.1038L257.244 53.6338C257.146 53.4561 257.013 53.2561 256.844 53.0339C256.674 52.8097 256.488 52.5811 256.285 52.3484C256.082 52.1156 255.878 51.9041 255.673 51.7136ZM258.869 51.8088L265.718 51.8088L265.718 52.7292L258.869 52.7292L258.869 51.8088ZM265.162 51.8088L266.165 51.8088L266.165 61.8508C266.165 62.1238 266.132 62.3322 266.067 62.4761C266.001 62.62 265.884 62.7342 265.715 62.8188C265.541 62.895 265.312 62.9405 265.029 62.9553C264.748 62.9722 264.407 62.9807 264.007 62.9807C263.984 62.8601 263.944 62.7099 263.886 62.53C263.829 62.3502 263.768 62.1989 263.702 62.0762C263.975 62.0868 264.229 62.092 264.464 62.092C264.701 62.092 264.86 62.092 264.94 62.092C265.031 62.0857 265.09 62.0645 265.118 62.0286C265.147 61.9947 265.162 61.9365 265.162 61.854L265.162 51.8088ZM259.224 58.1597L259.224 59.9148L262.347 59.9148L262.347 58.1597L259.224 58.1597ZM259.224 55.6143L259.224 57.3472L262.347 57.3472L262.347 55.6143L259.224 55.6143ZM258.342 54.8018L263.271 54.8018L263.271 60.7273L258.342 60.7273L258.342 54.8018ZM268.308 51.6057L271.237 51.6057L271.237 52.4912L269.174 52.4912L269.174 63.0061L268.308 63.0061L268.308 51.6057ZM271.008 51.6057L271.17 51.6057L271.32 51.5645L271.954 51.9453C271.766 52.4722 271.56 53.0371 271.335 53.6401C271.111 54.241 270.889 54.8018 270.669 55.3223C271.139 55.866 271.449 56.3739 271.599 56.8457C271.749 57.3154 271.824 57.7545 271.824 58.1628C271.824 58.512 271.785 58.8198 271.707 59.0864C271.631 59.3509 271.498 59.5509 271.31 59.6863C271.219 59.7582 271.116 59.8111 271.002 59.845C270.888 59.8788 270.765 59.9063 270.634 59.9275C270.505 59.9402 270.363 59.9476 270.209 59.9497C270.056 59.9497 269.908 59.9476 269.764 59.9434C269.758 59.8291 269.733 59.6884 269.688 59.5212C269.646 59.3541 269.589 59.2081 269.517 59.0833C269.665 59.0917 269.803 59.0991 269.933 59.1055C270.062 59.1097 270.175 59.1065 270.272 59.0959C270.439 59.0854 270.577 59.0473 270.685 58.9817C270.786 58.9097 270.856 58.7913 270.894 58.6262C270.932 58.4591 270.951 58.276 270.951 58.0771C270.951 57.7174 270.874 57.3165 270.72 56.8743C270.565 56.4299 270.251 55.9486 269.777 55.4302C269.898 55.1318 270.016 54.8219 270.133 54.5002C270.249 54.1765 270.361 53.8549 270.469 53.5354C270.577 53.2159 270.676 52.9133 270.767 52.6277C270.86 52.3399 270.941 52.0871 271.008 51.8691L271.008 51.6057ZM275.547 59.7021L276.372 59.7021L276.372 62.749L275.547 62.749L275.547 59.7021ZM273.906 53.9543L273.906 55.1731L278.061 55.1731L278.061 53.9543L273.906 53.9543ZM273.062 53.2434L278.946 53.2434L278.946 55.8936L273.062 55.8936L273.062 53.2434ZM272.392 51.6692L279.67 51.6692L279.67 52.5103L272.392 52.5103L272.392 51.6692ZM273.893 59.4768L278.102 59.4768L278.102 60.1719L273.893 60.1719L273.893 59.4768ZM272.494 56.6172L278.899 56.6172L278.899 57.3884L273.344 57.3884L273.344 63.0378L272.494 63.0378L272.494 56.6172ZM278.597 56.6172L279.464 56.6172L279.464 62.0603C279.464 62.2761 279.438 62.4486 279.387 62.5776C279.339 62.7067 279.239 62.8104 279.089 62.8887C278.943 62.9564 278.753 62.9976 278.518 63.0125C278.283 63.0273 277.993 63.0347 277.648 63.0347C277.638 62.9204 277.607 62.7861 277.556 62.6316C277.507 62.4771 277.455 62.3396 277.397 62.219C277.632 62.2275 277.844 62.2327 278.032 62.2349C278.223 62.237 278.352 62.2327 278.419 62.2222C278.538 62.2222 278.597 62.165 278.597 62.0508L278.597 56.6172ZM274.09 57.8328L274.719 57.5693C274.909 57.8169 275.103 58.092 275.299 58.3945C275.498 58.6971 275.645 58.9531 275.741 59.1626L275.09 59.4768C274.995 59.2568 274.851 58.9912 274.658 58.6802C274.468 58.367 274.279 58.0846 274.09 57.8328ZM277.255 57.5979L277.962 57.8962C277.766 58.2432 277.555 58.5998 277.331 58.9658C277.106 59.3298 276.895 59.644 276.696 59.9084L276.147 59.6514C276.274 59.4694 276.406 59.2578 276.544 59.0166C276.681 58.7733 276.813 58.5257 276.94 58.2739C277.067 58.0221 277.172 57.7968 277.255 57.5979ZM282.796 51.7073L291.134 51.7073L291.134 52.6182L282.796 52.6182L282.796 51.7073ZM284.037 54.002L289.756 54.002L289.756 54.7859L284.037 54.7859L284.037 54.002ZM283.72 56.0586L290.08 56.0586L290.08 56.8679L283.72 56.8679L283.72 56.0586ZM282.222 51.7073L283.18 51.7073L283.18 55.9221C283.18 56.4553 283.161 57.0361 283.123 57.6646C283.085 58.2909 283.009 58.9267 282.894 59.572C282.782 60.2153 282.614 60.8394 282.39 61.4446C282.168 62.0497 281.874 62.6062 281.508 63.114C281.45 63.0505 281.374 62.9775 281.279 62.895C281.184 62.8125 281.086 62.7332 280.987 62.657C280.888 62.5808 280.801 62.5247 280.727 62.4888C281.067 62.0148 281.337 61.5028 281.536 60.9526C281.737 60.4004 281.886 59.8333 281.984 59.2515C282.083 58.6675 282.148 58.092 282.177 57.5249C282.207 56.9578 282.222 56.4236 282.222 55.9221L282.222 51.7073ZM290.762 51.7073L291.74 51.7073L291.74 61.8032C291.74 62.11 291.697 62.3417 291.61 62.4983C291.523 62.657 291.375 62.7786 291.165 62.8633C290.962 62.9373 290.68 62.9828 290.318 62.9998C289.956 63.0167 289.481 63.0251 288.893 63.0251C288.876 62.9003 288.835 62.7469 288.769 62.5649C288.704 62.3851 288.637 62.2327 288.569 62.1079C288.849 62.1164 289.116 62.1206 289.372 62.1206C289.63 62.1227 289.854 62.1227 290.042 62.1206C290.232 62.1185 290.366 62.1174 290.442 62.1174C290.558 62.1111 290.641 62.0846 290.689 62.0381C290.738 61.9937 290.762 61.9164 290.762 61.8064L290.762 51.7073ZM286.37 52.8752L287.303 52.8752L287.303 56.5315L286.37 56.5315L286.37 52.8752ZM284.875 57.9629L289.414 57.9629L289.414 61.3748L284.875 61.3748L284.875 60.5972L288.503 60.5972L288.503 58.7468L284.875 58.7468L284.875 57.9629ZM284.358 57.9629L285.253 57.9629L285.253 62.1016L284.358 62.1016L284.358 57.9629ZM301.239 51.7231L304.845 51.7231L304.845 52.6182L301.239 52.6182L301.239 51.7231ZM301.239 54.7065L304.845 54.7065L304.845 55.5825L301.239 55.5825L301.239 54.7065ZM301.223 57.7407L304.87 57.7407L304.87 58.6262L301.223 58.6262L301.223 57.7407ZM304.41 51.7231L305.352 51.7231L305.352 61.7937C305.352 62.073 305.317 62.2909 305.245 62.4475C305.173 62.6041 305.042 62.7247 304.854 62.8093C304.672 62.8876 304.423 62.9373 304.105 62.9585C303.79 62.9818 303.393 62.9924 302.915 62.9902C302.9 62.8548 302.862 62.694 302.801 62.5078C302.741 62.3237 302.678 62.1682 302.61 62.0413C302.953 62.054 303.271 62.0603 303.566 62.0603C303.86 62.0603 304.055 62.0571 304.153 62.0508C304.248 62.0466 304.315 62.0264 304.353 61.9905C304.391 61.9524 304.41 61.8836 304.41 61.7842L304.41 51.7231ZM300.833 51.7231L301.753 51.7231L301.753 56.4458C301.753 56.9451 301.737 57.4847 301.706 58.0645C301.676 58.6442 301.617 59.2335 301.528 59.8323C301.439 60.429 301.307 61.0076 301.131 61.5684C300.956 62.1291 300.72 62.639 300.424 63.0981C300.373 63.0368 300.299 62.9691 300.201 62.895C300.106 62.821 300.008 62.7501 299.906 62.6824C299.807 62.6147 299.719 62.5671 299.643 62.5396C300.011 61.9556 300.279 61.3113 300.446 60.6067C300.613 59.9021 300.719 59.189 300.763 58.4675C300.81 57.746 300.833 57.0721 300.833 56.4458L300.833 51.7231ZM293.971 52.8086L300.198 52.8086L300.198 53.6782L293.971 53.6782L293.971 52.8086ZM295.498 54.8335L298.795 54.8335L298.795 55.6174L295.498 55.6174L295.498 54.8335ZM295.504 56.8933L298.805 56.8933L298.805 57.6836L295.504 57.6836L295.504 56.8933ZM293.797 58.9976L300.198 58.9976L300.198 59.8672L293.797 59.8672L293.797 58.9976ZM295.076 51.2344L295.964 51.2344L295.964 59.3467L295.076 59.3467L295.076 51.2344ZM298.329 51.2344L299.233 51.2344L299.233 59.3467L298.329 59.3467L298.329 51.2344ZM295.606 60.1465L296.539 60.4036C296.302 60.8966 296.008 61.38 295.656 61.854C295.307 62.3258 294.957 62.7226 294.606 63.0442C294.551 62.9892 294.475 62.9257 294.377 62.8538C294.28 62.7818 294.181 62.7099 294.079 62.6379C293.98 62.5681 293.891 62.512 293.812 62.4697C294.176 62.1756 294.518 61.8244 294.838 61.416C295.157 61.0055 295.413 60.5824 295.606 60.1465ZM297.475 60.5496L298.23 60.1465C298.404 60.339 298.578 60.5517 298.754 60.7844C298.932 61.0172 299.097 61.2457 299.249 61.47C299.404 61.6921 299.525 61.8953 299.614 62.0793L298.814 62.5427C298.738 62.3629 298.626 62.1587 298.478 61.9302C298.33 61.6995 298.167 61.4615 297.989 61.2161C297.814 60.9706 297.642 60.7485 297.475 60.5496ZM312.513 53.9734L312.513 55.0112L316.858 55.0112L316.858 53.9734L312.513 53.9734ZM312.513 52.2468L312.513 53.2783L316.858 53.2783L316.858 52.2468L312.513 52.2468ZM311.621 51.5042L317.791 51.5042L317.791 55.7634L311.621 55.7634L311.621 51.5042ZM311.03 56.7029L318.508 56.7029L318.508 57.5186L311.03 57.5186L311.03 56.7029ZM314.22 57.1028L315.137 57.1028L315.137 62.4189L314.22 62.0444L314.22 57.1028ZM312.481 59.4958C312.707 60.2131 313.009 60.7485 313.385 61.1018C313.764 61.453 314.206 61.6868 314.712 61.8032C315.22 61.9196 315.776 61.9778 316.382 61.9778C316.464 61.9778 316.617 61.9778 316.842 61.9778C317.066 61.9778 317.317 61.9778 317.594 61.9778C317.873 61.9778 318.135 61.9767 318.378 61.9746C318.623 61.9725 318.802 61.9704 318.914 61.9683C318.878 62.036 318.838 62.1217 318.794 62.2253C318.751 62.3311 318.715 62.439 318.686 62.5491C318.658 62.6591 318.637 62.7564 318.622 62.8411L318.086 62.8411L316.343 62.8411C315.798 62.8411 315.295 62.8009 314.836 62.7205C314.377 62.6422 313.96 62.4941 313.585 62.2761C313.213 62.0582 312.885 61.744 312.602 61.3335C312.318 60.9209 312.078 60.3845 311.881 59.7244L312.481 59.4958ZM314.852 59.0452L317.864 59.0452L317.864 59.8513L314.852 59.8513L314.852 59.0452ZM311.878 58.1375L312.77 58.2422C312.643 59.3107 312.406 60.2459 312.059 61.0479C311.714 61.8477 311.246 62.511 310.656 63.0378C310.607 62.9807 310.536 62.9151 310.443 62.8411C310.352 62.767 310.26 62.693 310.167 62.6189C310.074 62.547 309.995 62.4909 309.929 62.4507C310.507 61.9915 310.95 61.397 311.259 60.667C311.568 59.937 311.774 59.0938 311.878 58.1375ZM306.673 57.9883C307.176 57.8529 307.783 57.6762 308.491 57.4583C309.2 57.2382 309.921 57.0139 310.653 56.7854L310.786 57.6772C310.117 57.8994 309.444 58.1216 308.764 58.3438C308.087 58.5638 307.473 58.7627 306.92 58.9404L306.673 57.9883ZM306.819 53.7004L310.78 53.7004L310.78 54.6113L306.819 54.6113L306.819 53.7004ZM308.431 51.0884L309.339 51.0884L309.339 61.8223C309.339 62.0868 309.305 62.2909 309.237 62.4348C309.172 62.5787 309.058 62.6898 308.898 62.7681C308.743 62.8464 308.535 62.8971 308.272 62.9204C308.012 62.9458 307.675 62.9564 307.26 62.9521C307.249 62.8337 307.217 62.6866 307.162 62.511C307.109 62.3354 307.049 62.1809 306.984 62.0476C307.265 62.0582 307.519 62.0635 307.746 62.0635C307.974 62.0635 308.127 62.0603 308.206 62.054C308.29 62.054 308.349 62.037 308.38 62.0032C308.414 61.9714 308.431 61.909 308.431 61.8159L308.431 51.0884ZM90.3259 73.2266C90.3259 73.3112 90.3333 73.3652 90.3481 73.3884C90.3651 73.4096 90.4148 73.4202 90.4973 73.4202C90.5227 73.4202 90.5693 73.4202 90.637 73.4202C90.7068 73.4202 90.7777 73.4202 90.8496 73.4202C90.9237 73.4202 90.9755 73.4202 91.0051 73.4202C91.0834 73.4202 91.1342 73.417 91.1575 73.4106C91.1807 73.4043 91.1966 73.3948 91.2051 73.3821C91.2643 73.435 91.3458 73.4805 91.4495 73.5186C91.5553 73.5566 91.6536 73.5884 91.7446 73.6138C91.715 73.7598 91.6473 73.8656 91.5415 73.9312C91.4378 73.9967 91.2939 74.0295 91.1099 74.0295C91.0781 74.0295 91.0146 74.0295 90.9194 74.0295C90.8242 74.0295 90.7301 74.0295 90.637 74.0295C90.546 74.0295 90.4814 74.0295 90.4434 74.0295C90.1704 74.0295 89.9832 73.9788 89.8816 73.8772C89.7821 73.7735 89.7324 73.5588 89.7324 73.2329L89.7324 70.7002L90.3259 70.7002L90.3259 73.2266ZM89.0215 71.9285C89.0215 72.1887 88.9929 72.468 88.9358 72.7664C88.8808 73.0626 88.7792 73.3556 88.6311 73.6455C88.4851 73.9354 88.2725 74.1988 87.9932 74.4358C87.9445 74.3765 87.8694 74.3046 87.7678 74.22C87.6663 74.1353 87.5827 74.0729 87.5171 74.0327C87.7752 73.8211 87.9688 73.5958 88.0979 73.3567C88.2291 73.1155 88.3148 72.87 88.355 72.6204C88.3973 72.3707 88.4185 72.1369 88.4185 71.9189L88.4185 70.7002L89.0215 70.7002L89.0215 71.9285ZM90.4719 67.9231L90.4719 70.7732L89.7483 70.7732L89.7483 67.9231L90.4719 67.9231ZM89.0056 67.9231L89.0056 70.7732L88.2852 70.7732L88.2852 67.9231L89.0056 67.9231ZM92.1001 67.6375L92.1001 68.4722L86.6316 68.4722L86.6316 67.6375L92.1001 67.6375ZM91.5574 77.2859L91.5574 78.0793L87.2124 78.0793L87.2124 77.2859L91.5574 77.2859ZM91.5574 75.2007L91.5574 75.9783L87.2124 75.9783L87.2124 75.2007L91.5574 75.2007ZM91.9731 70.1099L91.9731 78.7998L91.1765 78.7998L91.1765 70.9414L87.6218 70.9414L87.6218 78.9712L86.8506 78.9712L86.8506 70.1099L91.9731 70.1099ZM98.1462 73.5312L98.1462 74.3215L92.9412 74.3215L93.3442 73.5312L98.1462 73.5312ZM94.0615 72.4807C93.9028 73.052 93.6923 73.6053 93.4299 74.1406C93.1676 74.6759 92.8851 75.1277 92.5825 75.4958C92.5063 75.4324 92.3974 75.3541 92.2556 75.261C92.1139 75.1679 91.9932 75.097 91.8938 75.0483C92.2133 74.6992 92.4873 74.2856 92.7158 73.8074C92.9443 73.3271 93.1284 72.8298 93.2681 72.3157L94.0615 72.4807ZM93.6172 71.3254L96.9846 71.3254L96.9846 70.2146L93.6172 70.2146L93.6172 71.3254ZM93.6172 69.4878L96.9846 69.4878L96.9846 68.3928L93.6172 68.3928L93.6172 69.4878ZM97.8828 67.6025L97.8828 72.1125L92.7571 72.1125L92.7571 67.6025L97.8828 67.6025ZM95.8135 72.3665L95.8135 78.3047L94.9343 78.3047L94.9343 72.3665L95.8135 72.3665ZM97.8796 75.6069L97.8796 76.4036L92.865 76.4036L92.865 75.6069L97.8796 75.6069ZM98.5303 77.8921L98.5303 78.7109L92.2937 78.7109L92.2937 77.8921L98.5303 77.8921Z" fill="rgb(139,146,165)" fill-rule="nonzero" />
		</g>
		<g id="chevron-right" customFrame="url(#clipPath_52)">
			<rect id="chevron-right" width="20.000000" height="20.000000" x="330.000000" y="42.500000" />
			<path id="矢量 54" d="M337.5 57.5L342.5 52.5L337.5 47.5" fill-rule="nonzero" stroke="rgb(199,203,214)" stroke-linecap="round" stroke-linejoin="round" stroke-width="1.666667" />
		</g>
	</g>
</svg>
